<svg xmlns="http://www.w3.org/2000/svg" fill="none" viewBox="0 0 324 68"><path fill="#FF5C35" d="M167.7.05c-.32 1.54-.57 3.12-1 4.64a52.3 52.3 0 0 1-6.7 14.68c-3.11 4.73-6.9 8.9-11.67 11.97-2.68 1.74-5.7 2.96-8.6 4.35-1.23.58-2.67.79-3.3 2.4a13.68 13.68 0 0 1 4.42 6.23c.73 2.02 1.14 4.16 1.69 6.26.05.21.09.47 0 .62-.23.36-.5.9-.8.94-.31.04-.9-.32-1.04-.64-.5-1.16-.87-2.38-1.26-3.6a16.39 16.39 0 0 0-3.23-6.11c-1.78-2.01-3.96-2.74-6.68-2.44-1.97.2-4.01 0-6-.19a26.9 26.9 0 0 1-8.03-2.27c-3-1.31-5.61-3.15-7.94-5.42-3.19-3.19-5.7-7-7.37-11.18-.06-.15-.17-.28-.2-.43l-.06-1.69c.54-.02 1.12-.17 1.65-.04 3.23.8 6.49 1.49 9.64 2.54a46.76 46.76 0 0 1 10.06 4.6c2.9 1.75 5.5 3.96 7.7 6.54.78.97 1.44 2.06 2.13 3.11.2.3.38.64.53.98.35.78.97 1.18 1.78.86.84-.32 1-1.1.73-1.86-.64-1.63-.47-3.34-.54-5.02-.14-3.62 1.03-6.9 2.7-10 3.7-6.81 9.43-11.39 16.24-14.86 3.27-1.61 6.65-3 10.12-4.12.8-.27 1.63-.51 2.68-.68l2.3-.22.05.05Z"/><path fill="#FF5C35" d="M217 59.27c1.19.19 2.37.58 3.53.52 2.85-.17 5.69-.52 8.5-.86 4.5-.52 8.6-2.5 12.9-3.73 1-.28 2.1-.41 3.12-.36 1.63.06 2 .8 1.22 2.23-.1.17-.13.38-.22.68.37.06.67.19.95.15 3.44-.56 6.87-1.15 10.3-1.73l.32-.05 7.53-.96c1.72-.22 2.55.5 2.45 2.21-.03.62.15 1.07.8 1.19.6.1 1.25.24 1.87.22 4.8-.22 9.3-1.73 13.79-3.3.3-.11.6-.23.9-.28 1.24-.23 1.9.32 2 1.57.18 2.7.18 2.67 2.84 2.25 3.13-.48 6.29-.95 9.44-1.35a3.55 3.55 0 0 0 2.5-1.44c3.13-3.9 7.33-4.76 11.98-3.98.7.12 1.45.66 1.95 1.2.8.87.66 1.67-.2 2.5a7.45 7.45 0 0 1-4.2 2.06c-1.45.23-2.86.58-4.27 1.05 1.24.64 2.56.77 3.8.68 3.33-.27 6.6-.73 9.94-1.11.47-.06.95-.04 1.43-.06.63 0 1.18.15 1.25.9.06.66-.37.94-.94 1.07-.4.1-.82.21-1.24.28-3.28.51-6.56 1.13-9.84 1.49-3.12.33-6.16 0-8.8-1.92-1.04-.75-2.14-.52-3.21-.39-2.78.36-5.54.8-8.31 1.2-1.67.23-3.34.43-5.01.6-1.26.13-2.1-.45-2.67-1.58-.5-1-.92-1.2-2.04-.8-4.1 1.4-8.37 1.8-12.63 2.23-1.43.15-2.94-.26-4.37-.66-.58-.15-1.17-.78-1.48-1.35-.5-.92-1.2-1.16-2.1-1.03-1.62.23-3.23.45-4.85.7l-14.12 2c-1.8.25-2.24-.35-1.56-2.04.07-.19.15-.4.19-.6.02-.1-.06-.2-.15-.55-1.54.5-3.04 1.05-4.6 1.45a99.6 99.6 0 0 1-13.98 2.66c-3.28.41-6.41 0-9.27-1.91a3.24 3.24 0 0 0-2.1-.41c-2.83.37-5.66.73-8.44 1.4a33.15 33.15 0 0 1-9.6 1.05c-2.8-.13-5.54-.6-7.81-2.59a5.25 5.25 0 0 1-1.88-3.86c-.03-.71 0-1.42 0-2.51-1.8 1.07-3.3 1.84-4.65 2.81-2.81 2-5.7 3.83-8.9 5.16-1.06.45-2.2.79-3.31 1-1.77.31-3.08-.44-3.48-2.99-.4-2.64.68-4.74 2.35-6.66 2.2-2.65 4.6-5.1 7.2-7.35.85-.7 1.49-1.63 2.44-2.7-.8.32-1.42.5-2 .8l-8.52 4.58c-5.05 2.66-10.11 5.3-15.18 7.95-.98.53-1.95 1.05-2.95 1.56-.76.4-.78.98-.65 1.75.24 1.35.32 2.7-.36 4.03-1.26 2.42-3.38 3.54-5.9 3.75a4.1 4.1 0 0 1-3.95-2.18c-.38-.67-.43-1.29.23-1.83.6-.51 1.23-.85 2-.32.36.22.7.47 1.1.65 1.3.66 2.75.12 3.2-1.27.22-.7 1.09-1.47.34-2.2-.73-.73-1.6-.02-2.38.2-4.56 1.15-9.07 2.52-13.68 3.42-3.46.68-7.04.66-10.53 1.15-3.68.5-7.28.1-10.9-.42-1.95-.2-3.84-.8-5.55-1.76-1.88-1.12-2.82-2.96-2.42-5.06.1-.49.4-.98.73-1.35 2.08-2.42 4.9-3.68 7.88-4.5 5.44-1.52 11-2.16 16.62-1.9 6.34.3 12.48 1.54 18.24 4.33 1.03.51 2.04 1.05 3.3 1.71 2-1.09 4.28-2.3 6.55-3.53 6.96-3.7 13.92-7.37 20.88-11.06 4.2-2.23 8.43-4.41 12.57-6.75a62.08 62.08 0 0 0 9.38-6.21 107.5 107.5 0 0 1 7.23-5.44 9.66 9.66 0 0 1 3.03-1.26c.57-.15 1.26 0 1.86.19 1.1.37 1.34 1.07.53 1.91-.94 1-2 1.9-3.13 2.65-3.04 2.04-6.18 3.92-9.2 5.98a31.37 31.37 0 0 0-4.7 3.71c-2.88 2.9-5.58 5.95-8.36 8.93-1.1 1.16-2.21 2.29-3.3 3.43-2.74 2.95-5.48 5.88-8.18 8.84-.47.52-.8 1.18-1.16 1.76l.32.36c1.46-.75 2.98-1.45 4.4-2.27 2.76-1.58 5.48-3.23 8.22-4.82 3.04-1.78 5.48-4.28 7.96-6.77 2.5-2.52 4.9-5.14 7.62-7.43 2.4-2.03 4.9-4.03 7.9-5.16.97-.36 2.06-.75 2.8.15.76.9.14 1.9-.33 2.81-.97 1.92-2.72 3.08-4.35 4.32-2.63 1.97-5.31 3.86-7.98 5.78a13.16 13.16 0 0 0-5.04 6.92c-1.02 3.15.43 5.47 3.7 6.36a14 14 0 0 0 5.98.22c1.99-.34 4-.47 5.97-.79 2.08-.33 4.16-.71 6.2-1.22a2.8 2.8 0 0 0 1.56-1.18c1.95-3.49 8.88-5.02 12.33-3.92 1.22.4 2 1.09 1.99 1.99a2.68 2.68 0 0 1-1.52 2.55 15.8 15.8 0 0 1-6.5 1.82c-.35.02-.7.11-1.06.19l-.08.45h-.03Zm-78.53-1.97v-.47c-.27-.19-.5-.41-.77-.56a30.65 30.65 0 0 0-8.26-2.7 50.96 50.96 0 0 0-14.52-.84c-3.1.3-6.17.84-9.21 1.53a20.84 20.84 0 0 0-5.3 2.03c-2.17 1.18-2.17 2.72-.01 3.86 1.18.62 2.59.77 3.88 1.2 2.52.83 5.14.45 7.7.7 1.6.14 3.26-.14 4.89-.23 1.1-.08 2.23-.06 3.32-.23 3.28-.54 6.57-1 9.8-1.76 2.87-.66 5.66-1.65 8.48-2.51v-.02Zm77.93-.77c2.03-.34 3.8-.58 5.39-1.88-2-.24-3.4.23-5.4 1.88Zm95.15-1.43-.15-.54c-1.96-.19-3.53.73-5.07 1.69l.13.4c1.69-.53 3.4-1.04 5.08-1.56v.01ZM32.8 28.51c-1.63-.15-2.91-.4-4.2-.4-6.63-.03-13.25-.03-19.87 0-1.86 0-3.7.23-5.56.25-1.63 0-2.8-1.03-3.11-2.63-.25-1.2.3-2.06 1.52-2.1 1.46-.04 2.96.1 4.43.2 1.22.1 2.42.3 3.62.4 5.2.45 10.45.75 15.7.7 3.23-.02 6.45.24 9.68.22 5.4-.04 10.79-.19 16.2-.32 3.8-.1 7.6-.2 11.42-.32 3.23-.1 6.45-.2 9.68-.26.5 0 1.13.06 1.48.34.57.43 1.33 1.07.92 1.83a3.51 3.51 0 0 1-1.84 1.54c-1.08.34-2.3.34-3.45.38-5.87.13-11.74.24-17.62.32-3.22.03-6.47.03-9.7 0-2.12-.04-4.22-.23-6.34-.28-1.7-.04-1.61.01-2 1.65-.61 2.73-1.34 5.44-2.01 8.16-.77 3.13-1.58 6.24-2.31 9.4-.45 1.94-.75 3.93-1.18 5.88-.23 1 .02 1.75.7 2.46.97 1.05 1.02 1.76 0 2.7-.97.88-2.1 1.61-3.24 2.23-.93.53-1.53.23-2.1-.75-.97-1.63-.73-3.41-.47-5.12.5-3.45 1-6.94 1.86-10.3 1.03-4.03 2.3-8 3.8-11.9.5-1.34 1.89-2.35 2.9-3.48.22-.24.56-.4 1.13-.82l-.04.02Zm51.05 32.5a35.12 35.12 0 0 1-16.23-3.8c-.58-.3-1.3-.44-1.95-.47-1.05-.08-2.12.03-3.17 0-3.62-.2-7.15.37-10.71 1-2.63.48-5.31.89-8.03.3a6.15 6.15 0 0 1-3.1-1.8c-.8-.78-.6-1.75-.17-2.66a4.54 4.54 0 0 1 2.7-2.32c2.87-1.09 5.8-1.61 8.86-.9 1.46.34 2.72.86 3.17 2.5.24.87.84 1.27 1.74 1.34 1.95.17 3.89.47 5.84.57 1.57.07 1.97-.27 1.8-1.84-.34-3.55 3.96-6.53 7.5-5.67.98.23 1.19.77.64 1.62-.32.48-.73.9-1.1 1.35a2.94 2.94 0 0 0-.4 3.5c1.16 2.33 3.3 3.4 5.56 4.2 2.8 1.02 5.8 1.3 8.74.8a9.1 9.1 0 0 1 2.85-.04c.45.07 1.07.56 1.2 1 .2.67-.5.82-1.01.87-1.58.17-3.15.32-4.73.47v-.02Zm-35.8-4.76.08-.15c.47-.06 1.05.04 1.39-.2.56-.42 1.05-1 1.35-1.62.13-.28-.12-.98-.42-1.22-1.27-1.09-3.7-1.05-5.06-.06-1 .73-1.02 1.67.05 2.27.8.45 1.75.66 2.6.96v.02Z"/><path fill="#FF5C35" d="M222.3 45.58c.72.35 1.46.67 2.13 1.07 1.37.78 2.72 1.6 4.1 2.4.12.07.3.1.42.2.5.38 1.19.73.89 1.5-.27.7-.96.45-1.52.4-2.18-.21-3.94-1.49-5.88-2.3-.71-.3-1.24-.37-1.9.08-.95.66-1.98 1.2-3 1.79-1.12.65-2.23.65-2.6.01-.4-.65.15-1.53 1.35-2.2 1.2-.65 2.38-1.36 3.6-1.98.75-.37 1.56-.64 2.42-.97Z"/></svg>